<svg xmlns="http://www.w3.org/2000/svg" xmlns:xlink="http://www.w3.org/1999/xlink" width="154" height="179" viewBox="0 0 154 179">
    <defs>
        <clipPath id="clip-path">
            <rect id="Rectangle_3" data-name="Rectangle 3" width="154" height="179" fill="none"/>
        </clipPath>
    </defs>
    <g id="Vector_Smart_Object" data-name="Vector Smart Object" transform="translate(-425 -7127)">
        <g id="Vector_Smart_Object-2" data-name="Vector Smart Object" transform="translate(425 7127)">
            <g id="Group_6" data-name="Group 6">
                <g id="Group_5" data-name="Group 5" clip-path="url(#clip-path)">
                    <path id="Path_7" data-name="Path 7" d="M17.282,138.68v-8.193a2.516,2.516,0,0,0-5.031,0v8.193a2.516,2.516,0,0,0,5.031,0" fill="#291b4a"/>
                    <path id="Path_8" data-name="Path 8" d="M26.405,117.476H4.376A4.374,4.374,0,0,0,0,121.837v44.737a4.374,4.374,0,0,0,4.376,4.361H26.405a4.375,4.375,0,0,0,4.377-4.361v-.534l51.331,12.628a11.755,11.755,0,0,0,2.8.333,12.048,12.048,0,0,0,4.821-.995l56.124-24.823a13.618,13.618,0,0,0-9.4-25.5L98.447,138.9c.258-5.408-3.193-11.584-9.735-12.953l-30.866-7.687a11.812,11.812,0,0,0-7.295.518l-19.769,7.984v-4.928a4.375,4.375,0,0,0-4.377-4.361m26.037,5.951a6.808,6.808,0,0,1,4.193-.3l30.949,7.706a7.661,7.661,0,0,1,5.769,8.507c-.516,3.309-3.392,4.949-7.9,4.494-3.513-.354-10.939-1.689-11.014-1.7a2.507,2.507,0,1,0-.9,4.934c.313.056,7.7,1.383,11.4,1.756,5.714.577,9.378-1.378,11.421-4.078l41.515-12.26A8.6,8.6,0,0,1,143.82,148.6L87.7,173.421a6.949,6.949,0,0,1-4.38.378L28.87,160.4a2.513,2.513,0,0,0-3.118,2.434v3.083H5.031V122.489h20.72v7.919c0,.026,0,.052,0,.078v13.9a2.516,2.516,0,0,0,5.031,0V132.176Z" fill="#291b4a"/>
                    <path id="Path_9" data-name="Path 9" d="M48.257,25.885v5.5a4.936,4.936,0,0,0,3.71,4.775h0l4.187,1.075-2.2,3.712a4.916,4.916,0,0,0,.765,5.99l3.9,3.89a4.963,4.963,0,0,0,6.013.76l3.723-2.19,1.081,4.175a4.946,4.946,0,0,0,4.791,3.7h5.519a4.946,4.946,0,0,0,4.793-3.7L85.623,49.4l3.726,2.192a4.964,4.964,0,0,0,6.012-.763l3.9-3.888a4.918,4.918,0,0,0,.764-5.992l-2.2-3.711,4.191-1.076a4.935,4.935,0,0,0,3.708-4.775v-5.5a4.936,4.936,0,0,0-3.712-4.776l-4.187-1.075,2.2-3.713a4.919,4.919,0,0,0-.766-5.989l-3.9-3.889a4.961,4.961,0,0,0-6.014-.761l-3.723,2.19L84.544,3.7A4.945,4.945,0,0,0,79.752,0H74.233a4.946,4.946,0,0,0-4.792,3.7l-1.08,4.172L64.635,5.68a4.963,4.963,0,0,0-6.011.763l-3.9,3.889a4.919,4.919,0,0,0-.764,5.991l2.2,3.711L51.967,21.11a4.936,4.936,0,0,0-3.71,4.775m5.031.063,7.362-1.89a2.5,2.5,0,0,0,1.539-3.7l-3.864-6.524,3.813-3.8,6.547,3.851A2.519,2.519,0,0,0,72.4,12.35l1.9-7.336h5.392l1.9,7.336A2.517,2.517,0,0,0,85.3,13.883l6.547-3.851,3.813,3.8L91.8,20.356a2.5,2.5,0,0,0,1.539,3.7l7.362,1.89v5.373l-7.362,1.89a2.5,2.5,0,0,0-1.539,3.7l3.864,6.524-3.813,3.8L85.3,43.386a2.518,2.518,0,0,0-3.714,1.532l-1.9,7.336H74.3l-1.9-7.336a2.519,2.519,0,0,0-3.715-1.532l-6.547,3.851-3.813-3.8,3.864-6.524a2.5,2.5,0,0,0-1.539-3.7l-7.362-1.89Z" fill="#291b4a"/>
                    <path id="Path_10" data-name="Path 10" d="M87.967,28.634A10.975,10.975,0,1,0,76.992,39.571,10.968,10.968,0,0,0,87.967,28.634m-16.919,0a5.944,5.944,0,1,1,5.944,5.923,5.941,5.941,0,0,1-5.944-5.923" fill="#291b4a"/>
                    <path id="Path_11" data-name="Path 11" d="M79.436,78.14v5.5a4.936,4.936,0,0,0,3.709,4.775h0l4.187,1.075-2.2,3.713a4.92,4.92,0,0,0,.766,5.989l3.9,3.889a4.963,4.963,0,0,0,6.013.761l3.724-2.19,1.08,4.175a4.946,4.946,0,0,0,4.791,3.7h5.52a4.948,4.948,0,0,0,4.793-3.7l1.079-4.172,3.726,2.192a4.964,4.964,0,0,0,6.011-.763l3.9-3.889a4.919,4.919,0,0,0,.764-5.991l-2.2-3.711,4.19-1.076a4.936,4.936,0,0,0,3.709-4.775v-5.5a4.937,4.937,0,0,0-3.712-4.776l-4.187-1.075,2.2-3.714a4.919,4.919,0,0,0-.766-5.988l-3.9-3.889a4.963,4.963,0,0,0-6.014-.761l-3.723,2.19-1.08-4.176a4.946,4.946,0,0,0-4.792-3.7h-5.52a4.947,4.947,0,0,0-4.792,3.7L99.54,60.127l-3.726-2.192A4.962,4.962,0,0,0,89.8,58.7l-3.9,3.889a4.921,4.921,0,0,0-.763,5.992l2.2,3.71-4.19,1.075a4.937,4.937,0,0,0-3.709,4.776m5.031.062,7.361-1.89a2.505,2.505,0,0,0,1.54-3.7L89.5,66.086l3.812-3.8,6.548,3.851a2.52,2.52,0,0,0,3.715-1.534l1.9-7.335h5.393l1.9,7.335a2.519,2.519,0,0,0,3.715,1.534l6.547-3.851,3.813,3.8-3.864,6.523a2.5,2.5,0,0,0,1.539,3.7l7.362,1.89v5.374l-7.362,1.89a2.5,2.5,0,0,0-1.539,3.7l3.864,6.524-3.813,3.8-6.547-3.85a2.518,2.518,0,0,0-3.715,1.533l-1.9,7.335h-5.393l-1.9-7.335a2.519,2.519,0,0,0-3.715-1.533l-6.548,3.85-3.812-3.8,3.864-6.524a2.505,2.505,0,0,0-1.54-3.7l-7.361-1.89Z" fill="#291b4a"/>
                    <path id="Path_12" data-name="Path 12" d="M119.146,80.889a10.975,10.975,0,1,0-10.975,10.937,10.968,10.968,0,0,0,10.975-10.937m-16.919,0a5.944,5.944,0,1,1,5.944,5.923,5.941,5.941,0,0,1-5.944-5.923" fill="#291b4a"/>
                    <path id="Path_13" data-name="Path 13" d="M17.077,78.14v5.5a4.936,4.936,0,0,0,3.709,4.775h0l4.187,1.075-2.2,3.712a4.918,4.918,0,0,0,.765,5.99l3.9,3.888a4.964,4.964,0,0,0,6.014.762l3.724-2.19,1.08,4.175a4.946,4.946,0,0,0,4.792,3.7h5.519a4.948,4.948,0,0,0,4.793-3.7l1.079-4.172,3.726,2.191a4.963,4.963,0,0,0,6.011-.762l3.9-3.89a4.92,4.92,0,0,0,.763-5.99l-2.2-3.711,4.19-1.076a4.936,4.936,0,0,0,3.709-4.775v-5.5a4.936,4.936,0,0,0-3.712-4.776l-4.187-1.075,2.2-3.714a4.921,4.921,0,0,0-.766-5.989L64.18,58.7a4.962,4.962,0,0,0-6.014-.761l-3.723,2.19-1.08-4.176a4.946,4.946,0,0,0-4.792-3.7H43.053a4.947,4.947,0,0,0-4.793,3.7l-1.079,4.172-3.726-2.192a4.962,4.962,0,0,0-6.011.763l-3.9,3.889a4.92,4.92,0,0,0-.764,5.992l2.2,3.71-4.19,1.076a4.936,4.936,0,0,0-3.709,4.775m5.031.062,7.362-1.89a2.5,2.5,0,0,0,1.539-3.7l-3.864-6.524,3.813-3.8L37.5,66.138A2.52,2.52,0,0,0,41.22,64.6l1.9-7.335h5.393l1.9,7.336a2.519,2.519,0,0,0,3.714,1.533l6.547-3.851,3.813,3.8L60.616,72.61a2.5,2.5,0,0,0,1.539,3.7l7.362,1.89v5.374l-7.362,1.89a2.5,2.5,0,0,0-1.539,3.7l3.864,6.524-3.813,3.8-6.547-3.85a2.518,2.518,0,0,0-3.714,1.532l-1.9,7.336H43.116l-1.9-7.335A2.519,2.519,0,0,0,37.5,95.641l-6.547,3.85-3.813-3.8,3.864-6.524a2.5,2.5,0,0,0-1.539-3.7l-7.362-1.89Z" fill="#291b4a"/>
                    <path id="Path_14" data-name="Path 14" d="M56.788,80.889A10.975,10.975,0,1,0,45.813,91.826,10.968,10.968,0,0,0,56.788,80.889m-16.919,0a5.944,5.944,0,1,1,5.944,5.923,5.941,5.941,0,0,1-5.944-5.923" fill="#291b4a"/>
                </g>
            </g>
        </g>
        <path id="Color_Overlay" data-name="Color Overlay" d="M507.113,7305.667l-51.331-12.627v.535a4.374,4.374,0,0,1-4.377,4.36H429.377a4.373,4.373,0,0,1-4.377-4.36v-44.737a4.373,4.373,0,0,1,4.377-4.362h22.028a4.374,4.374,0,0,1,4.377,4.362v4.928l19.77-7.985a11.808,11.808,0,0,1,7.294-.517l30.866,7.686c6.542,1.37,9.993,7.545,9.734,12.954l38.013-11.227A13.683,13.683,0,0,1,579,7267.7v.165a13.541,13.541,0,0,1-8.137,12.313L514.737,7305a12.032,12.032,0,0,1-4.82,1A11.767,11.767,0,0,1,507.113,7305.667ZM453.87,7287.4l54.45,13.394a6.945,6.945,0,0,0,4.38-.377l56.12-24.821a8.6,8.6,0,0,0-5.935-16.115l-41.516,12.261c-2.043,2.7-5.708,4.654-11.419,4.078-3.709-.373-11.091-1.7-11.4-1.757a2.506,2.506,0,1,1,.9-4.932c.073.013,7.5,1.346,11.012,1.7,4.507.453,7.384-1.187,7.9-4.494a7.659,7.659,0,0,0-5.768-8.508l-30.949-7.707a6.8,6.8,0,0,0-4.193.3l-21.662,8.75v12.213a2.516,2.516,0,0,1-5.031,0v-13.9c0-.026,0-.052,0-.077v-7.919H430.031v43.432h20.719v-3.084a2.516,2.516,0,0,1,3.119-2.433Zm-16.619-21.726v-8.192a2.516,2.516,0,0,1,5.031,0v8.192a2.516,2.516,0,0,1-5.031,0Zm93.162-29.156a4.946,4.946,0,0,1-4.791-3.695l-1.08-4.177-3.726,2.191a4.961,4.961,0,0,1-6.01-.761l-3.9-3.889a4.923,4.923,0,0,1-.765-5.99l2.2-3.713-4.186-1.074h0a4.939,4.939,0,0,1-3.709-4.776v-5.5a4.938,4.938,0,0,1,3.709-4.776l4.19-1.075-2.2-3.709a4.925,4.925,0,0,1,.763-5.994l3.9-3.887a4.963,4.963,0,0,1,6.01-.765l3.726,2.193,1.078-4.173a4.947,4.947,0,0,1,4.793-3.7h5.519a4.948,4.948,0,0,1,4.793,3.694l1.078,4.177,3.724-2.191a4.967,4.967,0,0,1,6.014.763l3.9,3.887a4.923,4.923,0,0,1,.766,5.988l-2.2,3.715,4.186,1.075a4.937,4.937,0,0,1,3.713,4.776v5.5a4.939,4.939,0,0,1-3.709,4.776l-4.19,1.074,2.2,3.711a4.923,4.923,0,0,1-.765,5.992l-3.9,3.889a4.964,4.964,0,0,1-6.01.763l-3.728-2.193-1.078,4.173a4.949,4.949,0,0,1-4.793,3.7Zm-3.308-14.04a2.507,2.507,0,0,1,1.474,1.69l1.9,7.334h5.393l1.9-7.334a2.517,2.517,0,0,1,3.715-1.533l6.548,3.851,3.812-3.8-3.863-6.522a2.5,2.5,0,0,1,1.538-3.7l7.362-1.891V7205.2l-7.362-1.891a2.5,2.5,0,0,1-1.538-3.7l3.863-6.522-3.812-3.8-6.548,3.853a2.519,2.519,0,0,1-3.715-1.535l-1.9-7.336h-5.393l-1.9,7.336a2.52,2.52,0,0,1-3.715,1.535l-6.548-3.853-3.812,3.8,3.863,6.524a2.5,2.5,0,0,1-1.538,3.7l-7.362,1.891v5.374l7.362,1.891a2.5,2.5,0,0,1,1.538,3.7l-3.863,6.522,3.812,3.8,6.548-3.851a2.519,2.519,0,0,1,2.241-.158Zm-59.05,14.04a4.948,4.948,0,0,1-4.793-3.695l-1.08-4.177-3.724,2.191a4.964,4.964,0,0,1-6.014-.763l-3.9-3.887a4.92,4.92,0,0,1-.765-5.99l2.2-3.713-4.186-1.074h0a4.939,4.939,0,0,1-3.711-4.776v-5.5a4.934,4.934,0,0,1,3.711-4.774l4.188-1.077-2.2-3.709a4.925,4.925,0,0,1,.763-5.994l3.9-3.887a4.963,4.963,0,0,1,6.01-.765l3.726,2.193,1.078-4.173a4.949,4.949,0,0,1,4.795-3.7h5.517a4.946,4.946,0,0,1,4.793,3.694l1.08,4.177,3.722-2.191a4.967,4.967,0,0,1,6.014.763l3.9,3.887a4.918,4.918,0,0,1,.766,5.988l-2.2,3.715,4.188,1.075a4.938,4.938,0,0,1,3.711,4.776v5.5a4.939,4.939,0,0,1-3.709,4.776l-4.19,1.074,2.2,3.711a4.922,4.922,0,0,1-.763,5.992l-3.9,3.889a4.962,4.962,0,0,1-6.01.761l-3.726-2.191-1.08,4.173a4.948,4.948,0,0,1-4.793,3.7Zm-3.308-14.04a2.516,2.516,0,0,1,1.474,1.69l1.894,7.334h5.394l1.9-7.336a2.518,2.518,0,0,1,3.715-1.531l6.546,3.851,3.814-3.8-3.865-6.522a2.5,2.5,0,0,1,1.538-3.7l7.362-1.891V7205.2l-7.362-1.891a2.5,2.5,0,0,1-1.538-3.7l3.865-6.524-3.814-3.8-6.546,3.853a2.519,2.519,0,0,1-3.715-1.535l-1.9-7.336h-5.394l-1.894,7.336a2.521,2.521,0,0,1-3.717,1.535l-6.546-3.853-3.814,3.8,3.865,6.524a2.5,2.5,0,0,1-1.538,3.7l-7.362,1.891v5.374l7.362,1.891a2.5,2.5,0,0,1,1.538,3.7l-3.865,6.522,3.814,3.8,6.546-3.851a2.523,2.523,0,0,1,2.242-.158ZM522.2,7207.89a10.975,10.975,0,1,1,10.976,10.935A10.969,10.969,0,0,1,522.2,7207.89Zm5.031,0a5.944,5.944,0,1,0,5.944-5.924A5.941,5.941,0,0,0,527.227,7207.89Zm-67.389,0a10.975,10.975,0,1,1,10.976,10.935A10.97,10.97,0,0,1,459.838,7207.89Zm5.031,0a5.944,5.944,0,1,0,5.944-5.924A5.94,5.94,0,0,0,464.869,7207.89Zm34.363-23.622a4.945,4.945,0,0,1-4.789-3.7l-1.082-4.175-3.722,2.191a4.965,4.965,0,0,1-6.012-.761l-3.905-3.889a4.915,4.915,0,0,1-.763-5.99l2.2-3.713-4.188-1.075,0,0a4.935,4.935,0,0,1-3.709-4.774v-5.5a4.935,4.935,0,0,1,3.709-4.774l4.19-1.076-2.2-3.711a4.922,4.922,0,0,1,.763-5.992l3.9-3.889a4.967,4.967,0,0,1,6.01-.763l3.726,2.193,1.08-4.173a4.946,4.946,0,0,1,4.791-3.7h5.519a4.946,4.946,0,0,1,4.793,3.7l1.08,4.175,3.722-2.191a4.963,4.963,0,0,1,6.014.761l3.9,3.889a4.92,4.92,0,0,1,.766,5.99l-2.2,3.713,4.186,1.074a4.938,4.938,0,0,1,3.713,4.776v5.5a4.935,4.935,0,0,1-3.709,4.774l-4.19,1.077,2.2,3.711a4.915,4.915,0,0,1-.765,5.992l-3.9,3.887a4.968,4.968,0,0,1-6.012.765l-3.726-2.193-1.078,4.173a4.95,4.95,0,0,1-4.795,3.7Zm-3.306-14.04a2.514,2.514,0,0,1,1.474,1.689l1.9,7.336h5.393l1.9-7.336a2.518,2.518,0,0,1,3.713-1.533l6.548,3.853,3.814-3.8-3.865-6.522a2.5,2.5,0,0,1,1.538-3.7l7.362-1.891v-5.374l-7.362-1.889a2.507,2.507,0,0,1-1.538-3.7l3.865-6.522-3.814-3.8-6.548,3.853a2.518,2.518,0,0,1-3.713-1.535l-1.9-7.336H499.3l-1.9,7.336a2.521,2.521,0,0,1-3.717,1.535l-6.546-3.853-3.814,3.8,3.865,6.522a2.507,2.507,0,0,1-1.538,3.7l-7.364,1.889v5.374l7.364,1.891a2.5,2.5,0,0,1,1.538,3.7l-3.865,6.522,3.814,3.8,6.546-3.853a2.53,2.53,0,0,1,1.282-.346A2.493,2.493,0,0,1,495.926,7170.229Zm-4.908-14.6a10.975,10.975,0,1,1,10.974,10.938A10.967,10.967,0,0,1,491.018,7155.633Zm5.031,0a5.944,5.944,0,1,0,5.943-5.922A5.94,5.94,0,0,0,496.049,7155.633Z" fill="#24ea9b"/>
    </g>
</svg>
