<svg xmlns="http://www.w3.org/2000/svg" xmlns:xlink="http://www.w3.org/1999/xlink" width="138" height="160" viewBox="0 0 138 160">
    <defs>
        <clipPath id="clip-path">
            <rect id="Rectangle_1" data-name="Rectangle 1" width="138" height="160" fill="none"/>
        </clipPath>
    </defs>
    <g id="Vector_Smart_Object" data-name="Vector Smart Object" transform="translate(-890 -270)">
        <g id="Vector_Smart_Object-2" data-name="Vector Smart Object" transform="translate(890 270)">
            <g id="Group_2" data-name="Group 2">
                <g id="Group_1" data-name="Group 1" clip-path="url(#clip-path)">
                    <path id="Path_1" data-name="Path 1" d="M67.276,159.3a1.94,1.94,0,0,0,1.491.7c.039,0,.077,0,.115,0s.079,0,.118,0a1.939,1.939,0,0,0,.975-.263l67.05-39.017a1.968,1.968,0,0,0,.975-1.7V40.983a1.968,1.968,0,0,0-.975-1.7L69.975.263l-.01-.006C69.913.228,69.859.2,69.8.175h0A1.881,1.881,0,0,0,69.44.051h0c-.058-.013-.115-.024-.175-.031l-.028,0L69.167.008l-.048,0L69.08,0l-.059,0H68.98L68.92,0l-.039,0-.048,0-.069.007-.027,0c-.059.008-.118.018-.175.031h0a1.946,1.946,0,0,0-.36.122l0,0c-.055.026-.109.053-.161.083l-.01.006L.975,39.28A1.97,1.97,0,0,0,0,40.983v78.035a1.97,1.97,0,0,0,.975,1.7ZM134.1,117.883l-22.573,13.136V105H134.1ZM3.9,82.062H22.554v.094A3.862,3.862,0,0,0,25.432,85.9l3.245.843-1.705,2.912a3.89,3.89,0,0,0,.594,4.7L30.591,97.4a3.816,3.816,0,0,0,4.662.6l2.886-1.717.836,3.273a3.843,3.843,0,0,0,3.716,2.9h4.278a3.841,3.841,0,0,0,3.715-2.9l.836-3.271L54.409,98a3.815,3.815,0,0,0,4.659-.6l3.026-3.05a3.892,3.892,0,0,0,.591-4.7l-1.7-2.91L64.23,85.9a3.862,3.862,0,0,0,2.875-3.744V77.844A3.862,3.862,0,0,0,64.23,74.1h0l-3.246-.843,1.7-2.912a3.888,3.888,0,0,0-.593-4.7L59.068,62.6a3.815,3.815,0,0,0-4.661-.6L51.52,63.719l-.837-3.274a3.842,3.842,0,0,0-3.714-2.9H42.691a3.843,3.843,0,0,0-3.716,2.9l-.836,3.272L35.25,62a3.816,3.816,0,0,0-4.66.6l-3.024,3.049a3.89,3.89,0,0,0-.593,4.7l1.7,2.91-3.248.844a3.862,3.862,0,0,0-2.875,3.743v.287H3.9V44.387L27.376,58.048a1.926,1.926,0,0,0,.974.264,1.947,1.947,0,0,0,1.69-.984,1.973,1.973,0,0,0-.714-2.685L5.851,40.983,67.05,5.37V19.908A1.958,1.958,0,0,0,69,21.874H81.828V34.588H43.923a7.683,7.683,0,1,0,0,3.931H81.828V53.8a1.95,1.95,0,1,0,3.9,0V19.908a1.958,1.958,0,0,0-1.95-1.966H70.95V5.37l61.2,35.613L110.434,53.618a1.975,1.975,0,0,0-.714,2.685,1.94,1.94,0,0,0,2.664.72L134.1,44.387V77.938H115.446v-.094a3.862,3.862,0,0,0-2.875-3.744h0l-3.246-.843,1.7-2.911a3.888,3.888,0,0,0-.594-4.7l-3.025-3.05a3.813,3.813,0,0,0-4.661-.6l-2.886,1.717-.838-3.274a3.841,3.841,0,0,0-3.714-2.9H91.031a3.842,3.842,0,0,0-3.715,2.9l-.837,3.272L83.591,62a3.813,3.813,0,0,0-4.659.6l-3.025,3.05a3.889,3.889,0,0,0-.593,4.7l1.7,2.91-3.248.843a3.862,3.862,0,0,0-2.875,3.744v4.313A3.861,3.861,0,0,0,73.772,85.9l3.246.843-1.7,2.911a3.89,3.89,0,0,0,.594,4.7L78.932,97.4a3.815,3.815,0,0,0,4.661.6l2.886-1.717.838,3.273a3.84,3.84,0,0,0,3.714,2.9H95.31a3.841,3.841,0,0,0,3.715-2.9l.837-3.271L102.75,98a3.816,3.816,0,0,0,4.659-.6l3.026-3.05a3.89,3.89,0,0,0,.592-4.7l-1.7-2.91,3.248-.843a3.862,3.862,0,0,0,2.875-3.744v-.287H134.1v19.2H109.576a1.958,1.958,0,0,0-1.95,1.966v30.253L70.717,154.765V130.132H82.082a7.682,7.682,0,1,0,0-3.931H56.994V103.036a1.95,1.95,0,1,0-3.9,0v25.13a1.958,1.958,0,0,0,1.95,1.966H66.817v24.363L30.3,133.245V103.036a1.958,1.958,0,0,0-1.95-1.966H3.9Zm29.453-8.554-2.995-5.115,2.956-2.979,5.074,3.02a1.947,1.947,0,0,0,2.88-1.2l1.47-5.751h4.18l1.47,5.751a1.958,1.958,0,0,0,1.142,1.326,1.933,1.933,0,0,0,1.738-.123l5.075-3.02L59.3,68.393l-3,5.115a1.976,1.976,0,0,0-.122,1.751A1.956,1.956,0,0,0,57.5,76.411L63.2,77.893v4.214L57.5,83.589a1.953,1.953,0,0,0-1.315,1.151,1.976,1.976,0,0,0,.122,1.751l3,5.116-2.956,2.978-5.076-3.018a1.931,1.931,0,0,0-1.737-.123,1.961,1.961,0,0,0-1.142,1.326l-1.47,5.751h-4.18l-1.47-5.751a1.959,1.959,0,0,0-1.142-1.326,1.938,1.938,0,0,0-1.738.123l-5.074,3.018-2.956-2.979,2.995-5.115a1.976,1.976,0,0,0,.122-1.751,1.953,1.953,0,0,0-1.315-1.151l-5.706-1.482V77.893l5.707-1.482a1.957,1.957,0,0,0,1.314-1.152,1.976,1.976,0,0,0-.122-1.751m6.922-36.955a3.721,3.721,0,1,1-3.721-3.75,3.74,3.74,0,0,1,3.721,3.75m64.37,49.937,3,5.116-2.956,2.978L99.61,91.567a1.931,1.931,0,0,0-1.737-.123,1.961,1.961,0,0,0-1.142,1.326l-1.47,5.751H91.08l-1.47-5.751a1.961,1.961,0,0,0-1.142-1.326,1.936,1.936,0,0,0-1.737.123l-5.075,3.018L78.7,91.607l3-5.116a1.98,1.98,0,0,0,.122-1.752,1.954,1.954,0,0,0-1.315-1.15L74.8,82.107V77.893L80.5,76.411a1.958,1.958,0,0,0,1.315-1.152,1.979,1.979,0,0,0-.122-1.751l-3-5.115,2.956-2.979,5.075,3.02a1.935,1.935,0,0,0,1.737.123,1.958,1.958,0,0,0,1.142-1.326l1.47-5.751h4.18l1.47,5.751a1.958,1.958,0,0,0,1.142,1.326,1.931,1.931,0,0,0,1.737-.123l5.075-3.02,2.956,2.979-3,5.115a1.979,1.979,0,0,0-.122,1.751,1.958,1.958,0,0,0,1.315,1.152l5.706,1.482v4.214l-5.706,1.482a1.954,1.954,0,0,0-1.315,1.15,1.98,1.98,0,0,0,.122,1.752M85.729,128.166a3.722,3.722,0,1,1,3.722,3.75,3.74,3.74,0,0,1-3.722-3.75M3.9,105H26.4v25.975L3.9,117.883Z" fill="#291b4a"/>
                    <path id="Path_2" data-name="Path 2" d="M53.337,80a8.508,8.508,0,1,0-8.508,8.576A8.551,8.551,0,0,0,53.337,80M40.222,80a4.608,4.608,0,1,1,4.608,4.645A4.632,4.632,0,0,1,40.222,80" fill="#291b4a"/>
                    <path id="Path_3" data-name="Path 3" d="M101.678,80a8.508,8.508,0,1,0-8.508,8.576A8.552,8.552,0,0,0,101.678,80M88.563,80a4.608,4.608,0,1,1,4.607,4.645A4.631,4.631,0,0,1,88.563,80" fill="#291b4a"/>
                </g>
            </g>
        </g>
        <path id="Color_Overlay" data-name="Color Overlay" d="M958.883,430c-.039,0-.076,0-.115,0a1.942,1.942,0,0,1-1.491-.7l-66.3-38.581a1.97,1.97,0,0,1-.975-1.7V310.982a1.969,1.969,0,0,1,.975-1.7l67.05-39.017.01-.005c.053-.031.106-.058.162-.084l0,0a1.981,1.981,0,0,1,.361-.122h0c.058-.014.116-.023.175-.031l.026,0a.6.6,0,0,1,.069-.007l.049,0h.039l.059,0h.041l.059,0h.039l.049,0a.566.566,0,0,1,.068.007.157.157,0,0,1,.029,0c.059.008.117.018.175.031h0a1.919,1.919,0,0,1,.361.122h0a1.711,1.711,0,0,1,.162.084l.01.005,67.05,39.017a1.967,1.967,0,0,1,.975,1.7v78.035a1.968,1.968,0,0,1-.975,1.7l-67.05,39.017A1.936,1.936,0,0,1,959,430C958.961,430,958.922,430,958.883,430Zm1.834-5.231,36.909-21.477V373.036a1.958,1.958,0,0,1,1.95-1.966H1024.1v-19.2h-18.653v.287a3.863,3.863,0,0,1-2.875,3.744l-3.249.842,1.7,2.911a3.889,3.889,0,0,1-.592,4.7l-3.026,3.049a3.814,3.814,0,0,1-4.658.6l-2.889-1.719-.837,3.271a3.841,3.841,0,0,1-3.714,2.9h-4.279a3.84,3.84,0,0,1-3.714-2.9l-.838-3.273L973.593,368a3.814,3.814,0,0,1-4.661-.6l-3.025-3.049a3.889,3.889,0,0,1-.594-4.7l1.7-2.911-3.245-.842a3.861,3.861,0,0,1-2.877-3.744v-4.313a3.862,3.862,0,0,1,2.875-3.744l3.248-.843-1.7-2.91a3.889,3.889,0,0,1,.593-4.7l3.025-3.049a3.813,3.813,0,0,1,4.659-.6l2.888,1.718.837-3.272a3.842,3.842,0,0,1,3.715-2.9h4.279a3.842,3.842,0,0,1,3.714,2.9l.837,3.273L992.748,332a3.813,3.813,0,0,1,4.661.6l3.026,3.049a3.888,3.888,0,0,1,.593,4.7l-1.7,2.911,3.246.843h0a3.863,3.863,0,0,1,2.875,3.744v.094H1024.1V314.387l-21.715,12.637a1.941,1.941,0,0,1-2.664-.721,1.974,1.974,0,0,1,.714-2.685l21.715-12.636-61.2-35.612v12.572h12.828a1.958,1.958,0,0,1,1.95,1.966V323.8a1.95,1.95,0,1,1-3.9,0V308.519H933.924a7.682,7.682,0,1,1,0-3.931h37.905V291.874H959a1.958,1.958,0,0,1-1.95-1.966V275.37l-61.2,35.612,23.476,13.661a1.974,1.974,0,0,1,.714,2.686,1.938,1.938,0,0,1-2.664.719L893.9,314.387v33.744h18.653v-.287a3.861,3.861,0,0,1,2.875-3.743l3.248-.844-1.7-2.91a3.89,3.89,0,0,1,.593-4.7l3.024-3.048a3.814,3.814,0,0,1,4.66-.6l2.889,1.718.836-3.272a3.844,3.844,0,0,1,3.715-2.9h4.279a3.842,3.842,0,0,1,3.713,2.9l.837,3.273L944.407,332a3.815,3.815,0,0,1,4.661.6l3.026,3.05a3.888,3.888,0,0,1,.593,4.7l-1.7,2.912,3.246.843h0a3.862,3.862,0,0,1,2.875,3.744v4.313a3.862,3.862,0,0,1-2.875,3.744l-3.247.842,1.7,2.911a3.893,3.893,0,0,1-.591,4.7l-3.026,3.049a3.815,3.815,0,0,1-4.659.6l-2.89-1.718-.836,3.271a3.841,3.841,0,0,1-3.714,2.9h-4.279a3.842,3.842,0,0,1-3.715-2.9l-.836-3.273L925.253,368a3.815,3.815,0,0,1-4.662-.6l-3.025-3.049a3.891,3.891,0,0,1-.595-4.7l1.706-2.912-3.245-.842a3.862,3.862,0,0,1-2.877-3.744v-.094H893.9V371.07h24.451a1.957,1.957,0,0,1,1.949,1.966v30.209l36.516,21.25V400.132H945.044a1.958,1.958,0,0,1-1.95-1.966V373.036a1.95,1.95,0,1,1,3.9,0V396.2h25.087a7.682,7.682,0,1,1,0,3.931H960.717Zm15.012-26.6a3.722,3.722,0,1,0,3.722-3.75A3.74,3.74,0,0,0,975.729,398.166Zm25.8,2.852,22.574-13.135V375h-22.574ZM893.9,387.883l22.5,13.093V375H893.9Zm84.568-26.439a1.958,1.958,0,0,1,1.141,1.326l1.471,5.751h4.18l1.471-5.751a1.962,1.962,0,0,1,1.142-1.326,1.931,1.931,0,0,1,1.737.123l5.075,3.019,2.956-2.978-3-5.117a1.978,1.978,0,0,1-.121-1.751,1.956,1.956,0,0,1,1.315-1.151l5.707-1.481v-4.214l-5.707-1.482a1.957,1.957,0,0,1-1.315-1.152,1.977,1.977,0,0,1,.121-1.75l3-5.116-2.956-2.979-5.075,3.02a1.931,1.931,0,0,1-1.737.122,1.958,1.958,0,0,1-1.142-1.326l-1.471-5.752h-4.18l-1.471,5.752a1.946,1.946,0,0,1-2.879,1.2l-5.075-3.02-2.956,2.979,3,5.116a1.98,1.98,0,0,1,.122,1.75,1.957,1.957,0,0,1-1.316,1.152l-5.706,1.482v4.214l5.706,1.481a1.955,1.955,0,0,1,1.316,1.151,1.981,1.981,0,0,1-.122,1.751l-3,5.117,2.956,2.978,5.075-3.019a1.939,1.939,0,0,1,1.738-.123Zm-48.342,0a1.957,1.957,0,0,1,1.142,1.326l1.471,5.751h4.18l1.471-5.751a1.961,1.961,0,0,1,1.142-1.326,1.932,1.932,0,0,1,1.737.123l5.076,3.019,2.956-2.978-3-5.117a1.976,1.976,0,0,1-.122-1.751,1.956,1.956,0,0,1,1.315-1.151l5.707-1.481v-4.214l-5.707-1.482a1.97,1.97,0,0,1-1.193-2.9l3-5.116-2.956-2.979-5.075,3.02a1.933,1.933,0,0,1-1.738.122,1.958,1.958,0,0,1-1.142-1.326l-1.471-5.752h-4.18l-1.471,5.752a1.947,1.947,0,0,1-2.88,1.2l-5.074-3.02-2.956,2.979,2.994,5.116a1.974,1.974,0,0,1,.122,1.75,1.954,1.954,0,0,1-1.314,1.152l-5.707,1.482v4.214l5.706,1.481a1.954,1.954,0,0,1,1.315,1.151,1.976,1.976,0,0,1-.122,1.751l-2.994,5.116,2.956,2.979,5.074-3.019a1.939,1.939,0,0,1,1.738-.123Zm-7.293-54.89a3.721,3.721,0,1,0,3.721-3.75A3.739,3.739,0,0,0,922.834,306.553ZM974.662,350a8.508,8.508,0,1,1,8.508,8.577A8.553,8.553,0,0,1,974.662,350Zm3.9,0a4.608,4.608,0,1,0,4.607-4.644A4.631,4.631,0,0,0,978.563,350Zm-52.241,0a8.508,8.508,0,1,1,8.509,8.577A8.552,8.552,0,0,1,926.321,350Zm3.9,0a4.608,4.608,0,1,0,4.608-4.644A4.632,4.632,0,0,0,930.222,350Z" fill="#24ea9b"/>
    </g>
</svg>
